<svg viewBox="0 0 40 40" fill="none" xmlns="http://www.w3.org/2000/svg">
<g clip-path="url(#clip0_912_389)">
<path d="M26.4529 36.6667H13.3986C10.4873 36.6667 9.03162 36.6667 7.93177 36.0732C7.08216 35.6148 6.38521 34.9179 5.92679 34.0683C5.33333 32.9684 5.33333 31.5127 5.33333 28.6014V19.6404C5.33333 17.266 6.35164 15.0056 8.13006 13.4324C8.19031 14.6375 9.18498 15.5837 10.3917 15.5837H24.3747C27.2861 15.5837 28.7417 15.5837 29.8416 16.1772C30.6912 16.6356 31.3882 17.3325 31.8466 18.1821C32.2818 18.9887 32.3979 19.9866 32.4288 21.6096C32.2421 21.6074 32.0325 21.6074 31.7947 21.6074H26.6315C24.1364 21.6074 22.1137 23.6301 22.1137 26.1252C22.1137 28.6203 24.1364 30.643 26.6315 30.643H31.7947C32.0373 30.643 32.2505 30.643 32.44 30.6407V30.6795C32.44 31.645 32.44 32.1277 32.3729 32.5311C32.0256 34.6174 30.3907 36.2523 28.3044 36.5997C27.901 36.6667 27.4183 36.6667 26.4529 36.6667Z" fill="#68C481"/>
<path fill-rule="evenodd" clip-rule="evenodd" d="M26.8466 22.8982C25.0644 22.8982 23.6196 24.343 23.6196 26.1252C23.6196 27.9074 25.0644 29.3522 26.8466 29.3522H31.6871C32.1869 29.3522 32.4368 29.3522 32.6446 29.3109C33.498 29.1411 34.1651 28.474 34.3349 27.6206C34.3762 27.4128 34.3762 27.1629 34.3762 26.663V25.5874C34.3762 25.0876 34.3762 24.8377 34.3349 24.6298C34.1651 23.7764 33.498 23.1093 32.6446 22.9396C32.4368 22.8982 32.1869 22.8982 31.6871 22.8982H26.8466ZM26.8466 27.2009C27.4407 27.2009 27.9222 26.7193 27.9222 26.1252C27.9222 25.5312 27.4407 25.0495 26.8466 25.0495C26.2525 25.0495 25.7709 25.5312 25.7709 26.1252C25.7709 26.7193 26.2525 27.2009 26.8466 27.2009Z" fill="#68C481"/>
<path fill-rule="evenodd" clip-rule="evenodd" d="M12.9241 11.4962C10.3545 11.4973 9.02416 11.5215 8.00046 12.0532C7.09673 12.5227 6.35986 13.2596 5.89042 14.1633C5.33333 15.2357 5.33333 16.6447 5.33333 19.4625V24.6128C5.33333 27.4307 5.33333 28.8396 5.89042 29.912C6.2728 30.6482 6.83259 31.2735 7.51546 31.7339C7.48466 31.2502 7.48466 30.6524 7.48466 29.8814V18.4966C7.48466 16.7814 7.48466 15.9237 7.82375 15.271C8.10951 14.7209 8.55803 14.2723 9.10812 13.9866C9.76092 13.6475 10.6185 13.6475 12.3338 13.6475H12.9241V11.4962ZM24.1452 13.6475H27.591C28.9646 13.6475 29.7883 13.6475 30.3971 13.8217C29.9296 13.0737 29.2691 12.462 28.4821 12.0532C27.5394 11.5635 26.3366 11.5043 24.1452 11.4971V13.6475Z" fill="#68C481"/>
<mask id="mask0_912_389" style="mask-type:alpha" maskUnits="userSpaceOnUse" x="10" y="1" width="17" height="14">
<path d="M26.8466 1.60006H10.2814V14.508H26.8466V1.60006Z" fill="#C4C4C4"/>
</mask>
<g mask="url(#mask0_912_389)">
<path fill-rule="evenodd" clip-rule="evenodd" d="M18.5102 19.3485C22.841 19.3485 26.3518 15.8377 26.3518 11.5069C26.3518 7.1761 22.841 3.6653 18.5102 3.6653C14.1794 3.6653 10.6686 7.1761 10.6686 11.5069C10.6686 15.8377 14.1794 19.3485 18.5102 19.3485ZM19.4352 5.85108H17.4928V7.45356H15.5794V16.2918H17.4928V18.2342H19.4352V16.2889C20.9464 16.2288 22.145 15.2213 22.145 13.7034C22.145 12.807 21.7156 12.1252 21.0591 11.7085C21.5389 11.2919 21.8293 10.7111 21.8293 9.97878C21.8293 8.58445 20.7881 7.63185 19.4352 7.47607V5.85108ZM19.8091 10.1303C19.8091 9.67574 19.5061 9.34749 19.0389 9.34749H17.5996V10.9131H19.0389C19.4935 10.9131 19.8091 10.5848 19.8091 10.1303ZM17.5996 14.3979H19.2915C19.7965 14.3979 20.1248 14.0444 20.1248 13.5519C20.1248 13.0595 19.7965 12.706 19.2915 12.706H17.5996V14.3979Z" fill="#FFC700"/>
</g>
</g>
<defs>
<clipPath id="clip0_912_389">
<rect width="29.0429" height="33.3333" fill="white" transform="translate(5.33333 3.33333)"/>
</clipPath>
</defs>
</svg>
