<svg viewBox="0 0 120 120" fill="none" xmlns="http://www.w3.org/2000/svg">
<g clip-path="url(#clip0_912_389)">
<path d="M79.3586 110H40.1959C31.4619 110 27.0949 110 23.7953 108.22C21.2465 106.844 19.1556 104.754 17.7804 102.205C16 98.9052 16 94.5382 16 85.8042V58.9211C16 51.7979 19.0549 45.0167 24.3902 40.2971C24.5709 43.9126 27.555 46.7511 31.175 46.7511H73.1242C81.8582 46.7511 86.2253 46.7511 89.5249 48.5315C92.0737 49.9067 94.1645 51.9976 95.5398 54.5464C96.8453 56.9661 97.1936 59.9598 97.2863 64.8288C96.7263 64.8223 96.0974 64.8223 95.384 64.8223H79.8944C72.4091 64.8223 66.341 70.8903 66.341 78.3756C66.341 85.8609 72.4091 91.9289 79.8944 91.9289H95.384C96.1118 91.9289 96.7516 91.9289 97.3201 91.922V92.0385C97.3201 94.9349 97.3201 96.383 97.1187 97.5933C96.0768 103.852 91.1722 108.757 84.9133 109.799C83.703 110 82.2549 110 79.3586 110Z" fill="#68C481"/>
<path fill-rule="evenodd" clip-rule="evenodd" d="M80.5398 68.6947C75.1932 68.6947 70.8588 73.029 70.8588 78.3756C70.8588 83.7223 75.1932 88.0566 80.5398 88.0566H95.0613C96.5607 88.0566 97.3104 88.0566 97.9339 87.9326C100.494 87.4234 102.495 85.422 103.005 82.8618C103.129 82.2383 103.129 81.4886 103.129 79.9891V76.7622C103.129 75.2627 103.129 74.513 103.005 73.8895C102.495 71.3293 100.494 69.3279 97.9339 68.8187C97.3104 68.6947 96.5607 68.6947 95.0613 68.6947H80.5398ZM80.5398 81.6027C82.322 81.6027 83.7667 80.1578 83.7667 78.3756C83.7667 76.5935 82.322 75.1486 80.5398 75.1486C78.7575 75.1486 77.3128 76.5935 77.3128 78.3756C77.3128 80.1578 78.7575 81.6027 80.5398 81.6027Z" fill="#68C481"/>
<path fill-rule="evenodd" clip-rule="evenodd" d="M38.7723 34.4886C31.0634 34.4919 27.0725 34.5645 24.0014 36.1597C21.2902 37.5681 19.0796 39.7787 17.6712 42.4899C16 45.7071 16 49.934 16 58.3875V73.8384C16 82.292 16 86.5188 17.6712 89.736C18.8184 91.9445 20.4978 93.8206 22.5464 95.2017C22.454 93.7505 22.454 91.9573 22.454 89.6442V55.4897C22.454 50.3441 22.454 47.7712 23.4713 45.8129C24.3285 44.1626 25.6741 42.817 27.3244 41.9597C29.2828 40.9425 31.8555 40.9425 37.0013 40.9425H38.7723V34.4886ZM72.4356 40.9425H82.7729C86.8939 40.9425 89.3647 40.9425 91.1913 41.465C89.7887 39.221 87.8073 37.3861 85.4463 36.1597C82.6181 34.6906 79.0097 34.5129 72.4356 34.4914V40.9425Z" fill="#68C481"/>
<mask id="mask0_912_389" style="mask-type:alpha" maskUnits="userSpaceOnUse" x="30" y="4" width="51" height="40">
<path d="M80.5398 4.80017H30.8442V43.524H80.5398V4.80017Z" fill="#C4C4C4"/>
</mask>
<g mask="url(#mask0_912_389)">
<path fill-rule="evenodd" clip-rule="evenodd" d="M55.5306 58.0454C68.523 58.0454 79.0554 47.513 79.0554 34.5207C79.0554 21.5283 68.523 10.9959 55.5306 10.9959C42.5382 10.9959 32.0058 21.5283 32.0058 34.5207C32.0058 47.513 42.5382 58.0454 55.5306 58.0454ZM58.3057 17.5532H52.4783V22.3607H46.7382V48.8753H52.4783V54.7027H58.3056V48.8667C62.8393 48.6863 66.4349 45.6638 66.4349 41.1103C66.4349 38.421 65.1469 36.3755 63.1773 35.1256C64.6167 33.8756 65.4879 32.1333 65.4879 29.9363C65.4879 25.7534 62.3644 22.8955 58.3057 22.4282V17.5532ZM59.4274 30.3909C59.4274 29.0272 58.5183 28.0425 57.1168 28.0425H52.7987V32.7393H57.1168C58.4805 32.7393 59.4274 31.7545 59.4274 30.3909ZM52.7987 43.1937H57.8744C59.3895 43.1937 60.3744 42.1331 60.3744 40.6558C60.3744 39.1785 59.3895 38.118 57.8744 38.118H52.7987V43.1937Z" fill="#FFC700"/>
</g>
</g>
<defs>
<clipPath id="clip0_912_389">
<rect width="87.1287" height="100" fill="white" transform="translate(16 10)"/>
</clipPath>
</defs>
</svg>
